<?xml version="1.0" standalone="no"?>
<!DOCTYPE svg PUBLIC "-//W3C//DTD SVG 20010904//EN"
 "http://www.w3.org/TR/2001/REC-SVG-20010904/DTD/svg10.dtd">
<svg version="1.0" xmlns="http://www.w3.org/2000/svg"
 width="960.000000pt" height="960.000000pt" viewBox="0 0 960.000000 960.000000"
 preserveAspectRatio="xMidYMid meet">
<metadata>
Created by potrace 1.13, written by Peter Selinger 2001-2015
</metadata>
<g transform="translate(0.000000,960.000000) scale(0.100000,-0.100000)"
fill="#000000" stroke="none">
<path d="M4890 8383 c-184 -19 -408 -69 -595 -133 -152 -52 -409 -179 -545
-269 -292 -193 -572 -475 -754 -759 l-46 -73 117 -55 c64 -30 120 -51 123 -47
4 5 35 50 69 100 297 438 784 781 1296 913 713 184 1440 29 2020 -430 183
-144 410 -405 524 -600 24 -41 45 -77 47 -78 3 -5 267 27 272 33 5 5 -110 203
-170 293 -133 198 -381 458 -570 600 -361 270 -773 438 -1221 497 -108 14
-461 19 -567 8z"/>
<path d="M1083 7839 c-45 -13 -66 -48 -61 -104 2 -36 0 -45 -13 -45 -31 0 -79
-22 -89 -41 -13 -23 7 -75 41 -106 39 -36 140 -77 451 -182 445 -151 612 -219
1183 -479 193 -87 551 -248 798 -357 246 -109 446 -199 445 -200 -12 -9 -614
76 -718 100 -22 6 -20 2 15 -30 52 -48 117 -86 370 -216 191 -97 358 -167 550
-229 66 -22 73 -27 125 -94 119 -155 353 -426 440 -511 82 -80 90 -90 74 -102
-34 -25 -185 -29 -276 -7 -23 5 -37 -4 -110 -73 -149 -143 -453 -355 -649
-453 -161 -81 -180 -85 -265 -58 -101 32 -183 30 -261 -6 -72 -33 -92 -51 -75
-68 8 -8 21 -4 50 14 58 39 130 61 177 53 22 -3 75 -16 118 -29 l79 -23 -53
-23 c-53 -22 -56 -22 -294 -14 -222 9 -243 11 -278 32 -21 12 -45 22 -53 22
-31 0 -7 -26 50 -54 57 -29 64 -30 260 -37 225 -8 281 -2 356 36 80 41 69 24
-17 -26 l-78 -44 -235 -4 c-267 -3 -305 2 -358 55 -36 36 -52 42 -52 20 0 -26
40 -63 92 -87 52 -23 60 -23 288 -21 129 2 253 8 274 13 62 17 402 235 815
522 79 56 136 88 160 92 20 3 70 15 112 25 96 25 138 25 218 0 47 -15 93 -20
175 -21 62 0 116 1 122 2 5 1 49 -16 97 -39 98 -46 242 -101 329 -127 l58 -16
-6 -62 c-4 -34 -15 -82 -25 -106 l-19 -44 47 -45 c27 -25 77 -70 113 -102 36
-31 218 -211 405 -399 330 -331 339 -341 305 -341 -19 0 -70 -12 -113 -25
l-79 -25 -65 32 c-87 43 -175 50 -215 18 -30 -23 -37 -50 -13 -50 8 0 15 4 15
9 0 5 13 14 30 21 41 17 108 5 176 -31 31 -16 64 -29 73 -29 10 0 51 11 91 25
103 35 131 33 206 -16 35 -22 96 -52 136 -66 64 -23 88 -26 193 -25 136 1 159
-7 205 -75 24 -35 41 -44 48 -25 5 16 -61 95 -97 116 -28 16 -54 19 -165 20
-125 1 -135 3 -207 34 -42 18 -85 39 -95 48 -15 11 -10 11 21 -2 31 -13 88
-19 245 -25 209 -7 250 -14 362 -63 27 -11 39 -13 44 -4 11 17 -22 36 -111 65
-72 23 -101 27 -285 33 -184 5 -209 8 -247 28 -23 12 -51 22 -61 22 -11 0 -26
8 -33 17 -12 15 -12 16 4 10 10 -4 37 -10 60 -13 23 -3 77 -15 120 -25 67 -17
87 -18 140 -8 35 6 91 8 129 4 72 -7 100 7 51 26 -18 7 -71 9 -153 5 -78 -4
-138 -3 -160 4 -19 6 -68 17 -109 25 -68 14 -78 19 -149 82 -222 198 -583 570
-634 653 -15 23 -46 275 -36 285 2 3 51 0 109 -5 141 -13 405 -12 509 1 130
16 415 83 518 122 131 49 241 119 347 219 128 122 198 226 336 500 65 131 143
272 172 315 107 156 317 432 344 451 16 10 134 54 263 97 129 43 241 82 248
88 29 23 -12 27 -174 16 -236 -17 -282 -10 -410 57 -144 76 -225 95 -394 96
-156 0 -271 -22 -371 -72 -90 -44 -110 -60 -279 -225 -88 -85 -177 -162 -205
-177 -76 -40 -188 -68 -308 -75 l-107 -6 52 -30 c29 -16 76 -49 103 -72 44
-37 54 -41 80 -33 17 4 89 7 160 6 123 -3 133 -2 175 22 58 33 108 100 144
195 52 137 92 175 253 241 171 70 263 134 263 181 0 14 14 15 118 10 132 -6
181 -20 309 -88 77 -41 99 -59 72 -59 -6 0 -49 -18 -95 -41 -96 -47 -107 -68
-46 -92 20 -8 54 -17 75 -21 37 -7 37 -7 23 -34 -19 -36 -219 -230 -279 -271
-26 -18 -89 -52 -140 -76 -61 -28 -106 -57 -134 -86 -44 -46 -93 -138 -93
-175 0 -53 -70 -84 -190 -84 -68 0 -169 -34 -222 -74 -64 -49 -104 -117 -149
-258 -54 -164 -109 -268 -184 -344 -76 -77 -162 -121 -328 -168 -143 -41 -230
-45 -473 -26 -239 20 -424 74 -656 191 -210 107 -304 174 -448 318 -117 118
-426 488 -416 498 8 9 138 -38 296 -108 85 -37 180 -77 210 -89 30 -12 64 -30
75 -40 72 -65 361 -146 555 -156 l105 -5 -66 24 c-172 63 -357 194 -564 402
-139 138 -290 311 -343 391 -23 36 -36 44 -87 59 -139 38 -428 155 -680 275
-441 209 -1547 759 -1727 859 -319 176 -563 283 -720 315 -86 18 -108 18 -155
5z m120 -230 c34 -11 102 -37 152 -56 159 -62 2598 -1192 2622 -1215 13 -12
23 -25 23 -30 0 -38 -234 60 -1325 557 -687 313 -765 346 -1150 490 -305 114
-449 176 -482 206 -22 22 -30 49 -16 62 14 14 116 6 176 -14z"/>
<path d="M2735 6680 c-14 -22 -68 -220 -90 -328 -69 -341 -65 -718 11 -1062
49 -219 193 -599 246 -647 15 -13 36 -18 82 -18 54 0 67 4 118 39 l58 39 -39
71 c-90 163 -182 418 -220 606 -35 173 -45 283 -45 475 1 222 18 362 70 564
20 75 38 145 41 156 4 18 -8 25 -79 54 -46 19 -97 40 -115 48 -20 8 -34 9 -38
3z"/>
<path d="M7450 6603 c-39 -15 -60 -47 -60 -89 0 -35 5 -47 31 -68 40 -34 88
-34 126 -2 23 20 28 32 28 70 0 33 -6 51 -21 66 -21 21 -77 34 -104 23z"/>
<path d="M7599 5722 c-136 -118 -190 -194 -208 -292 -64 -346 -216 -685 -443
-983 -120 -157 -335 -363 -487 -467 -34 -22 -61 -45 -61 -50 0 -17 68 -50 104
-50 20 0 53 -7 73 -15 19 -8 61 -15 92 -15 l56 0 120 109 c281 253 498 557
639 894 95 225 163 485 185 702 21 204 21 225 8 225 -6 0 -42 -26 -78 -58z"/>
<path d="M3077 4401 l-28 -6 55 -74 c402 -537 994 -889 1668 -992 169 -26 511
-31 668 -11 289 38 579 125 828 248 83 41 152 79 152 84 0 14 -91 90 -115 96
-12 3 -48 -4 -81 -16 -122 -43 -125 -44 -179 -25 l-51 17 -119 -40 c-253 -86
-453 -117 -740 -117 -239 1 -357 15 -574 71 -442 113 -862 378 -1168 737 l-32
37 -128 -1 c-70 -1 -141 -4 -156 -8z"/>
<path d="M4273 2895 c-123 -33 -238 -123 -296 -232 -92 -173 -93 -473 -2 -654
119 -234 431 -314 728 -187 l47 20 0 159 0 159 35 0 35 0 0 90 0 90 -197 -2
-198 -3 0 -85 0 -85 68 -3 67 -3 0 -99 0 -100 -27 -7 c-16 -5 -69 -8 -119 -8
-81 0 -97 3 -150 30 -68 35 -114 94 -142 184 -24 81 -24 295 1 370 27 81 67
133 129 166 49 28 60 30 158 30 58 0 117 -3 133 -8 27 -7 27 -8 27 -97 l0 -90
90 0 90 0 0 149 c0 107 -4 151 -12 158 -19 15 -134 50 -202 62 -81 15 -200 13
-263 -4z"/>
<path d="M3373 2883 c-2 -10 -71 -223 -153 -473 l-148 -455 -56 -3 -57 -3 3
-82 3 -82 190 0 190 0 3 83 3 82 -46 0 c-25 0 -45 3 -45 6 0 3 14 51 31 105
l31 100 135 -3 136 -3 28 -83 c16 -46 31 -92 34 -103 6 -17 1 -19 -34 -19
l-41 0 0 -85 0 -85 190 0 190 0 0 84 0 85 -52 3 -52 3 -155 473 -155 472 -84
0 c-71 0 -85 -3 -89 -17z m121 -419 c20 -61 36 -114 36 -117 0 -4 -34 -7 -76
-7 -67 0 -75 2 -70 18 22 75 69 222 72 220 1 -2 18 -53 38 -114z"/>
<path d="M5865 2573 c-58 -181 -128 -393 -154 -473 l-48 -145 -51 -3 -52 -3 0
-85 0 -84 190 0 190 0 0 85 0 85 -46 0 c-33 0 -45 4 -42 13 3 6 18 54 33 105
l28 92 136 0 137 0 32 -98 c18 -54 32 -101 32 -105 0 -4 -18 -7 -40 -7 l-40 0
0 -85 0 -85 393 2 392 3 3 83 3 82 -61 0 -60 0 0 385 0 384 58 3 57 3 3 83 3
82 -216 0 -216 0 3 -82 3 -83 58 -3 57 -3 0 -384 0 -385 -99 0 -99 0 -159 475
-158 475 -82 0 -81 0 -107 -327z m220 -103 c19 -57 35 -110 35 -117 0 -10 -20
-13 -76 -13 -64 0 -75 2 -70 15 3 9 20 63 37 120 18 58 34 103 36 101 2 -1 19
-50 38 -106z"/>
<path d="M1700 2806 l0 -85 52 -3 52 -3 149 -472 150 -473 83 0 c77 0 83 2 89
23 4 12 39 121 78 242 l70 220 81 -242 81 -243 82 0 82 0 9 33 c5 17 71 231
147 475 l138 442 54 0 53 0 0 85 0 85 -190 0 -190 0 0 -84 0 -85 43 -3 43 -3
-90 -307 c-50 -169 -94 -304 -97 -300 -4 4 -52 143 -107 310 l-100 302 49 0
49 0 0 85 0 85 -200 0 -200 0 0 -85 0 -84 57 -3 56 -3 29 -85 c18 -51 27 -97
24 -116 -9 -63 -129 -416 -136 -403 -5 8 -47 142 -95 299 -48 157 -90 291 -92
298 -4 8 7 12 36 12 l41 0 0 85 0 85 -190 0 -190 0 0 -84z"/>
<path d="M4840 2730 l0 -160 90 0 90 0 0 75 0 75 65 0 65 0 0 -385 0 -385 -65
0 -65 0 0 -85 0 -85 228 2 227 3 3 83 3 82 -71 0 -70 0 0 385 0 385 70 0 70 0
0 -75 0 -75 90 0 90 0 0 160 0 160 -410 0 -410 0 0 -160z"/>
<path d="M7000 2805 l0 -85 55 0 55 0 0 -385 0 -385 -55 0 -55 0 0 -85 0 -85
360 0 360 0 0 155 0 155 -85 0 -85 0 0 -70 0 -70 -125 0 -125 0 0 385 0 384
58 3 57 3 3 83 3 82 -211 0 -210 0 0 -85z"/>
<path d="M2834 1623 c-35 -7 -56 -37 -52 -75 3 -33 20 -47 109 -83 34 -14 33
-56 -2 -69 -37 -13 -79 0 -79 24 0 11 -7 20 -16 20 -11 0 -14 -8 -12 -32 3
-30 7 -34 48 -42 60 -11 116 11 126 50 10 38 -4 55 -67 86 -87 42 -96 56 -54
84 32 21 75 12 75 -16 0 -13 7 -20 20 -20 15 0 20 7 20 29 0 17 -4 32 -8 35
-14 8 -85 15 -108 9z"/>
<path d="M3324 1615 c-42 -22 -64 -64 -64 -122 0 -65 27 -108 78 -124 102 -30
186 63 153 170 -22 74 -100 110 -167 76z m89 -27 c34 -18 46 -40 47 -85 0 -56
-16 -89 -51 -103 -40 -17 -80 -1 -101 41 -31 59 -17 121 32 146 31 16 46 16
73 1z"/>
<path d="M3800 1615 c0 -8 7 -15 15 -15 12 0 15 -18 15 -105 0 -87 -3 -105
-15 -105 -8 0 -15 -7 -15 -15 0 -13 16 -15 103 -13 l102 3 3 38 c3 32 0 37
-17 37 -16 0 -21 -6 -21 -25 0 -24 -3 -25 -55 -25 l-55 0 0 105 c0 87 3 105
15 105 8 0 15 7 15 15 0 11 -12 15 -45 15 -33 0 -45 -4 -45 -15z"/>
<path d="M4297 1623 c-12 -11 -8 -23 8 -23 12 0 15 -15 15 -75 0 -99 17 -139
65 -155 29 -10 46 -10 76 -1 54 16 69 50 69 151 0 64 3 80 15 80 8 0 15 7 15
15 0 11 -12 15 -45 15 -33 0 -45 -4 -45 -15 0 -8 7 -15 16 -15 14 0 16 -12 13
-86 -4 -76 -7 -88 -28 -105 -28 -23 -59 -24 -89 -3 -20 14 -22 23 -22 105 0
53 4 89 10 89 6 0 10 7 10 15 0 11 -11 15 -38 15 -21 0 -42 -3 -45 -7z"/>
<path d="M4850 1590 c0 -29 4 -40 15 -40 9 0 15 9 15 25 0 20 5 25 25 25 l25
0 0 -105 c0 -89 -2 -105 -16 -105 -9 0 -14 -6 -11 -12 2 -8 21 -13 47 -13 26
0 45 5 48 13 2 6 -3 12 -12 12 -14 0 -16 16 -16 105 l0 105 25 0 c20 0 25 -5
25 -25 0 -16 6 -25 15 -25 11 0 15 11 15 40 l0 40 -100 0 -100 0 0 -40z"/>
<path d="M5803 1615 c-109 -47 -88 -233 29 -251 46 -8 104 19 123 57 20 37 19
112 -1 150 -15 30 -66 59 -101 59 -10 -1 -32 -7 -50 -15z m110 -44 c44 -44 26
-151 -29 -171 -39 -15 -53 -12 -85 19 -32 32 -39 88 -18 135 22 47 93 57 132
17z"/>
<path d="M6277 1623 c-12 -11 -8 -23 8 -23 12 0 15 -18 15 -105 0 -89 -2 -105
-16 -105 -9 0 -14 -6 -11 -12 2 -8 21 -13 47 -13 26 0 45 5 48 13 2 6 -3 12
-12 12 -13 0 -16 14 -16 87 l0 86 68 -99 c95 -138 102 -136 102 15 0 101 2
121 15 121 8 0 15 7 15 15 0 11 -12 15 -45 15 -33 0 -45 -4 -45 -15 0 -8 7
-15 15 -15 12 0 15 -16 15 -86 0 -47 -3 -83 -8 -80 -4 2 -36 47 -72 100 -54
79 -70 95 -91 96 -14 0 -29 -3 -32 -7z"/>
<path d="M6873 1620 c-12 -5 -29 -20 -38 -33 -27 -41 -6 -73 71 -107 55 -25
65 -33 62 -52 -6 -43 -108 -50 -108 -8 0 11 -7 20 -16 20 -11 0 -14 -8 -12
-32 3 -29 8 -34 40 -42 49 -12 96 2 121 36 31 42 12 72 -68 108 -73 33 -87 62
-38 81 37 14 73 4 73 -21 0 -13 7 -20 20 -20 15 0 20 7 20 29 0 24 -6 31 -31
40 -37 13 -66 13 -96 1z"/>
</g>
</svg>
